<svg width="41" height="41" viewBox="0 0 41 41" fill="none" xmlns="http://www.w3.org/2000/svg">
<path d="M30.9576 7.69252C30.4928 7.69252 30.0384 7.83035 29.652 8.08857C29.2655 8.34679 28.9643 8.71381 28.7865 9.14321C28.6086 9.57262 28.5621 10.0451 28.6527 10.501C28.7434 10.9568 28.9672 11.3756 29.2959 11.7042C29.6245 12.0329 30.0433 12.2567 30.4991 12.3474C30.955 12.438 31.4275 12.3915 31.8569 12.2136C32.2863 12.0358 32.6533 11.7346 32.9115 11.3481C33.1698 10.9617 33.3076 10.5073 33.3076 10.0425C33.3076 9.41926 33.06 8.82153 32.6193 8.38082C32.1786 7.94011 31.5808 7.69252 30.9576 7.69252ZM39.9659 12.4317C39.9278 10.8069 39.6235 9.19927 39.0651 7.67294C38.5671 6.36699 37.7921 5.18444 36.7934 4.20669C35.8237 3.2029 34.6384 2.43278 33.3272 1.9546C31.8049 1.37917 30.1955 1.06789 28.5684 1.03419C26.4926 0.916687 25.8267 0.916687 20.5001 0.916687C15.1734 0.916687 14.5076 0.916687 12.4317 1.03419C10.8047 1.06789 9.19529 1.37917 7.673 1.9546C6.3642 2.43762 5.17991 3.20708 4.20675 4.20669C3.20296 5.17641 2.43284 6.36171 1.95466 7.67294C1.37923 9.19523 1.06795 10.8046 1.03425 12.4317C0.916748 14.5075 0.916748 15.1734 0.916748 20.5C0.916748 25.8267 0.916748 26.4925 1.03425 28.5684C1.06795 30.1954 1.37923 31.8048 1.95466 33.3271C2.43284 34.6383 3.20296 35.8236 4.20675 36.7934C5.17991 37.793 6.3642 38.5624 7.673 39.0454C9.19529 39.6209 10.8047 39.9322 12.4317 39.9659C14.5076 40.0834 15.1734 40.0834 20.5001 40.0834C25.8267 40.0834 26.4926 40.0834 28.5684 39.9659C30.1955 39.9322 31.8049 39.6209 33.3272 39.0454C34.6384 38.5673 35.8237 37.7971 36.7934 36.7934C37.7966 35.8192 38.5722 34.6356 39.0651 33.3271C39.6235 31.8008 39.9278 30.1932 39.9659 28.5684C39.9659 26.4925 40.0834 25.8267 40.0834 20.5C40.0834 15.1734 40.0834 14.5075 39.9659 12.4317ZM36.4409 28.3334C36.4267 29.5764 36.2015 30.8081 35.7751 31.9759C35.4624 32.8281 34.9602 33.5982 34.3063 34.2279C33.6711 34.8752 32.9026 35.3764 32.0542 35.6967C30.8865 36.1231 29.6548 36.3483 28.4117 36.3625C26.4534 36.4604 25.7288 36.48 20.5784 36.48C15.428 36.48 14.7034 36.48 12.7451 36.3625C11.4543 36.3867 10.1691 36.1879 8.94591 35.775C8.13474 35.4383 7.40149 34.9384 6.79175 34.3063C6.14175 33.6772 5.64582 32.9064 5.34258 32.0542C4.86447 30.8697 4.59928 29.6101 4.55925 28.3334C4.55925 26.375 4.44175 25.6504 4.44175 20.5C4.44175 15.3496 4.44175 14.625 4.55925 12.6667C4.56803 11.3958 4.80003 10.1364 5.24466 8.94585C5.58942 8.11926 6.1186 7.38243 6.79175 6.79169C7.38672 6.11835 8.12202 5.58358 8.94591 5.22502C10.1396 4.79427 11.3977 4.56913 12.6667 4.55919C14.6251 4.55919 15.3497 4.44169 20.5001 4.44169C25.6505 4.44169 26.3751 4.44169 28.3334 4.55919C29.5765 4.57344 30.8082 4.79859 31.9759 5.22502C32.8658 5.5553 33.6646 6.09226 34.3063 6.79169C34.9481 7.39324 35.4495 8.12871 35.7751 8.94585C36.2103 10.1383 36.4356 11.3973 36.4409 12.6667C36.5388 14.625 36.5584 15.3496 36.5584 20.5C36.5584 25.6504 36.5388 26.375 36.4409 28.3334ZM20.5001 10.4538C18.514 10.4576 16.5735 11.0501 14.924 12.1564C13.2745 13.2626 11.9899 14.833 11.2325 16.669C10.4752 18.5051 10.279 20.5244 10.6688 22.4719C11.0587 24.4194 12.017 26.2077 13.4228 27.6107C14.8286 29.0137 16.6187 29.9686 18.5669 30.3546C20.5152 30.7407 22.5341 30.5406 24.3687 29.7797C26.2033 29.0187 27.7711 27.731 28.8742 26.0794C29.9772 24.4277 30.5659 22.4861 30.5659 20.5C30.5685 19.1784 30.3098 17.8692 29.8046 16.6479C29.2994 15.4266 28.5578 14.3172 27.6223 13.3835C26.6868 12.4499 25.576 11.7104 24.3537 11.2076C23.1314 10.7048 21.8217 10.4486 20.5001 10.4538ZM20.5001 27.0213C19.2103 27.0213 17.9495 26.6388 16.8771 25.9222C15.8047 25.2057 14.9688 24.1872 14.4752 22.9956C13.9817 21.804 13.8525 20.4928 14.1041 19.2278C14.3558 17.9628 14.9768 16.8008 15.8889 15.8888C16.8009 14.9768 17.9629 14.3557 19.2278 14.1041C20.4928 13.8524 21.8041 13.9816 22.9957 14.4752C24.1873 14.9687 25.2057 15.8046 25.9223 16.877C26.6389 17.9494 27.0213 19.2102 27.0213 20.5C27.0213 21.3564 26.8527 22.2044 26.5249 22.9956C26.1972 23.7868 25.7169 24.5057 25.1113 25.1112C24.5057 25.7168 23.7868 26.1971 22.9957 26.5249C22.2045 26.8526 21.3565 27.0213 20.5001 27.0213Z" fill="#165563"/>
</svg>
