<svg width="120" height="58" viewBox="0 0 120 58" fill="none" xmlns="http://www.w3.org/2000/svg">
<path d="M2.256 22.616L0.744 23.552C0.952 23.984 1.256 24.408 1.656 24.824C2.072 25.24 2.576 25.584 3.168 25.856C3.76 26.112 4.424 26.24 5.16 26.24C6.296 26.24 7.208 25.92 7.896 25.28C8.6 24.64 8.952 23.84 8.952 22.88C8.952 22.224 8.792 21.688 8.472 21.272C8.168 20.856 7.752 20.504 7.224 20.216C6.696 19.912 6.112 19.632 5.472 19.376C5.088 19.216 4.72 19.048 4.368 18.872C4.016 18.696 3.728 18.496 3.504 18.272C3.28 18.048 3.168 17.792 3.168 17.504C3.168 17.136 3.312 16.864 3.6 16.688C3.888 16.512 4.232 16.424 4.632 16.424C5.208 16.424 5.72 16.56 6.168 16.832C6.632 17.104 7.016 17.448 7.32 17.864L8.856 16.88C8.632 16.464 8.32 16.096 7.92 15.776C7.52 15.456 7.056 15.2 6.528 15.008C6.016 14.816 5.464 14.72 4.872 14.72C4.28 14.72 3.704 14.824 3.144 15.032C2.6 15.24 2.152 15.56 1.8 15.992C1.464 16.424 1.296 16.968 1.296 17.624C1.296 18.264 1.456 18.8 1.776 19.232C2.112 19.648 2.52 19.992 3 20.264C3.496 20.52 3.984 20.744 4.464 20.936C4.896 21.096 5.304 21.272 5.688 21.464C6.072 21.64 6.384 21.864 6.624 22.136C6.88 22.392 7.008 22.712 7.008 23.096C7.008 23.528 6.848 23.872 6.528 24.128C6.224 24.368 5.8 24.488 5.256 24.488C4.808 24.488 4.392 24.408 4.008 24.248C3.64 24.072 3.312 23.84 3.024 23.552C2.736 23.264 2.48 22.952 2.256 22.616ZM11.4797 10.4C11.4797 10.752 11.6077 11.064 11.8637 11.336C12.1357 11.592 12.4477 11.72 12.7997 11.72C13.1677 11.72 13.4797 11.592 13.7357 11.336C13.9917 11.064 14.1197 10.752 14.1197 10.4C14.1197 10.032 13.9917 9.72 13.7357 9.464C13.4797 9.208 13.1677 9.08 12.7997 9.08C12.4477 9.08 12.1357 9.208 11.8637 9.464C11.6077 9.72 11.4797 10.032 11.4797 10.4ZM11.8397 14.96V26H13.7597V14.96H11.8397ZM16.9701 26.72C16.9701 27.664 17.2021 28.496 17.6661 29.216C18.1301 29.952 18.7701 30.52 19.5861 30.92C20.4181 31.32 21.3701 31.52 22.4421 31.52C23.3701 31.52 24.2501 31.304 25.0821 30.872C25.9141 30.44 26.5941 29.792 27.1221 28.928C27.6501 28.08 27.9141 27.024 27.9141 25.76V14.96H25.9941V25.76C25.9941 26.688 25.8101 27.44 25.4421 28.016C25.0901 28.608 24.6421 29.04 24.0981 29.312C23.5541 29.584 23.0021 29.72 22.4421 29.72C21.7221 29.72 21.0981 29.576 20.5701 29.288C20.0421 29.016 19.6341 28.648 19.3461 28.184C19.0581 27.736 18.9141 27.248 18.9141 26.72H16.9701ZM16.7541 20.48C16.7541 21.664 17.0021 22.688 17.4981 23.552C17.9941 24.416 18.6581 25.08 19.4901 25.544C20.3221 26.008 21.2341 26.24 22.2261 26.24C23.1541 26.24 23.9621 26.008 24.6501 25.544C25.3381 25.08 25.8741 24.416 26.2581 23.552C26.6581 22.688 26.8581 21.664 26.8581 20.48C26.8581 19.28 26.6581 18.256 26.2581 17.408C25.8741 16.544 25.3381 15.88 24.6501 15.416C23.9621 14.952 23.1541 14.72 22.2261 14.72C21.2341 14.72 20.3221 14.952 19.4901 15.416C18.6581 15.88 17.9941 16.544 17.4981 17.408C17.0021 18.256 16.7541 19.28 16.7541 20.48ZM18.6981 20.48C18.6981 19.632 18.8661 18.912 19.2021 18.32C19.5541 17.728 20.0181 17.28 20.5941 16.976C21.1701 16.672 21.7941 16.52 22.4661 16.52C22.8821 16.52 23.2981 16.608 23.7141 16.784C24.1301 16.96 24.5061 17.216 24.8421 17.552C25.1941 17.888 25.4741 18.304 25.6821 18.8C25.8901 19.28 25.9941 19.84 25.9941 20.48C25.9941 21.328 25.8181 22.048 25.4661 22.64C25.1141 23.232 24.6661 23.68 24.1221 23.984C23.5781 24.288 23.0261 24.44 22.4661 24.44C21.7941 24.44 21.1701 24.288 20.5941 23.984C20.0181 23.68 19.5541 23.232 19.2021 22.64C18.8661 22.048 18.6981 21.328 18.6981 20.48ZM38.4816 19.28V26H40.4016V19.04C40.4016 17.712 40.0576 16.664 39.3696 15.896C38.6976 15.112 37.7776 14.72 36.6096 14.72C35.8896 14.72 35.2496 14.88 34.6896 15.2C34.1456 15.52 33.6896 16.016 33.3216 16.688V14.96H31.4016V26H33.3216V19.28C33.3216 18.736 33.4336 18.256 33.6576 17.84C33.8976 17.424 34.2256 17.104 34.6416 16.88C35.0736 16.64 35.5696 16.52 36.1296 16.52C36.8976 16.52 37.4816 16.752 37.8816 17.216C38.2816 17.68 38.4816 18.368 38.4816 19.28ZM51.2063 10.4C51.2063 10.752 51.3343 11.064 51.5903 11.336C51.8623 11.592 52.1743 11.72 52.5263 11.72C52.8943 11.72 53.2063 11.592 53.4623 11.336C53.7183 11.064 53.8463 10.752 53.8463 10.4C53.8463 10.032 53.7183 9.72 53.4623 9.464C53.2063 9.208 52.8943 9.08 52.5263 9.08C52.1743 9.08 51.8623 9.208 51.5903 9.464C51.3343 9.72 51.2063 10.032 51.2063 10.4ZM51.5663 14.96V26H53.4863V14.96H51.5663ZM64.5206 19.28V26H66.4406V19.04C66.4406 17.712 66.0966 16.664 65.4086 15.896C64.7366 15.112 63.8166 14.72 62.6486 14.72C61.9286 14.72 61.2886 14.88 60.7286 15.2C60.1846 15.52 59.7286 16.016 59.3606 16.688V14.96H57.4406V26H59.3606V19.28C59.3606 18.736 59.4726 18.256 59.6966 17.84C59.9366 17.424 60.2646 17.104 60.6806 16.88C61.1126 16.64 61.6086 16.52 62.1686 16.52C62.9366 16.52 63.5206 16.752 63.9206 17.216C64.3206 17.68 64.5206 18.368 64.5206 19.28Z" fill="#165563"/>
<circle cx="102" cy="18" r="16.5" stroke="#349DB5" stroke-width="3"/>
<path d="M87.9131 28.1738C87.9131 28.1738 95.9035 23.1387 101.609 23.0868C107.457 23.0336 115.696 28.1738 115.696 28.1738" stroke="#349DB5" stroke-width="3"/>
<circle cx="101.609" cy="16.0433" r="5.15217" stroke="#349DB5" stroke-width="3"/>
</svg>
