<svg width="244" height="38" viewBox="0 0 244 38" fill="none" xmlns="http://www.w3.org/2000/svg">
<path d="M18.1296 0L22.2 12.9124L35.3719 12.9124L24.7156 20.8927L28.786 33.8051L18.1296 25.8248L7.4733 33.8051L11.5437 20.8927L0.887327 12.9124L14.0593 12.9124L18.1296 0Z" fill="white"/>
<path d="M225.247 0L229.441 12.9124L243.012 12.9124L232.033 20.8927L236.226 33.8051L225.247 25.8248L214.268 33.8051L218.461 20.8927L207.482 12.9124L221.053 12.9124L225.247 0Z" fill="white"/>
<path d="M179.099 0L183.046 12.9124L195.819 12.9124L185.485 20.8927L189.432 33.8051L179.099 25.8248L168.765 33.8051L172.712 20.8927L162.379 12.9124L175.152 12.9124L179.099 0Z" fill="white"/>
<path d="M71.4197 0L75.6134 12.9124L89.1845 12.9124L78.2053 20.8927L82.399 33.8051L71.4197 25.8248L60.4405 33.8051L64.6342 20.8927L53.6549 12.9124L67.226 12.9124L71.4197 0Z" fill="white"/>
<path d="M125.259 0L129.453 12.9124L143.024 12.9124L132.045 20.8927L136.239 33.8051L125.259 25.8248L114.28 33.8051L118.474 20.8927L107.495 12.9124L121.066 12.9124L125.259 0Z" fill="white"/>
</svg>
