<svg width="43" height="35" viewBox="0 0 43 35" fill="none" xmlns="http://www.w3.org/2000/svg">
<path d="M42.75 4.32502C41.1527 5.01797 39.4635 5.47605 37.735 5.68502C39.5586 4.59557 40.9252 2.88168 41.5813 0.861268C39.8675 1.8814 37.9916 2.60015 36.035 2.98627C34.7272 1.56798 32.9856 0.623898 31.0833 0.302078C29.1811 -0.0197429 27.2259 0.298905 25.5243 1.20805C23.8227 2.11719 22.471 3.5654 21.6811 5.32555C20.8913 7.08569 20.708 9.05822 21.16 10.9338C17.695 10.7585 14.3057 9.85629 11.2121 8.28572C8.11859 6.71515 5.39005 4.51137 3.20375 1.81752C2.43692 3.15663 2.03398 4.67314 2.035 6.21627C2.03228 7.64933 2.38396 9.06083 3.05873 10.3251C3.7335 11.5894 4.71041 12.6672 5.9025 13.4625C4.51695 13.4248 3.16101 13.053 1.95 12.3788V12.485C1.96038 14.4929 2.66399 16.4356 3.94179 17.9844C5.2196 19.5333 6.99317 20.5933 8.9625 20.985C8.20442 21.2157 7.41736 21.3374 6.625 21.3463C6.07652 21.3399 5.5294 21.2901 4.98875 21.1975C5.54956 22.9247 6.63482 24.4342 8.09353 25.5159C9.55225 26.5975 11.3118 27.1976 13.1275 27.2325C10.0616 29.645 6.27625 30.9616 2.375 30.9725C1.66469 30.9748 0.954938 30.9323 0.25 30.845C4.23316 33.4168 8.87498 34.7821 13.6163 34.7763C16.8881 34.8102 20.1339 34.1919 23.1641 32.9574C26.1943 31.7229 28.9482 29.897 31.2648 27.5863C33.5814 25.2756 35.4144 22.5265 36.6567 19.4994C37.8989 16.4724 38.5256 13.2282 38.5 9.95627C38.5 9.59502 38.5 9.21252 38.5 8.83002C40.1675 7.58649 41.6056 6.06205 42.75 4.32502Z" fill="#165563"/>
</svg>
