<svg width="42" height="43" viewBox="0 0 42 43" fill="none" xmlns="http://www.w3.org/2000/svg">
<path d="M40.25 17.4925C40.3366 14.9876 39.7888 12.5015 38.6575 10.265C37.89 9.34727 36.8248 8.72796 35.6475 8.51497C30.7782 8.07314 25.8887 7.89205 21 7.97247C16.1292 7.8884 11.2573 8.06365 6.40505 8.49747C5.44573 8.67198 4.55795 9.12195 3.85005 9.79247C2.27505 11.245 2.10005 13.73 1.92505 15.83C1.67114 19.6057 1.67114 23.3942 1.92505 27.17C1.97567 28.3519 2.15166 29.5252 2.45005 30.67C2.66105 31.5538 3.08796 32.3716 3.69255 33.05C4.40527 33.756 5.31372 34.2316 6.30005 34.415C10.0729 34.8807 13.8744 35.0737 17.675 34.9925C23.8 35.08 29.1725 34.9925 35.525 34.5025C36.5356 34.3304 37.4696 33.8542 38.2025 33.1375C38.6925 32.6473 39.0584 32.0474 39.27 31.3875C39.8959 29.4671 40.2033 27.4572 40.18 25.4375C40.25 24.4575 40.25 18.5425 40.25 17.4925ZM17.045 26.4875V15.655L27.405 21.0975C24.5 22.7075 20.6675 24.5275 17.045 26.4875Z" fill="#165563"/>
</svg>
